<svg width="500" height="500" viewBox="0 0 500 500" fill="none" xmlns="http://www.w3.org/2000/svg">
<path d="M62.719 35.6595C59.944 37.1626 56.1283 40.6315 54.1626 43.2909L50.6938 48.2629L50.3469 92.6638L50 137.065H86.4226H122.961L123.192 106.655L123.539 76.3603L159.384 76.0134C197.772 75.6666 228.413 77.0541 241.479 79.8291C262.986 84.3386 287.267 95.3232 303.802 107.811C309.468 112.205 314.787 116.136 315.48 116.714C316.405 117.408 324.037 111.395 339.878 97.2889C352.481 86.073 363.003 76.3603 363.235 75.8978C363.466 75.3197 358.609 71.7352 352.481 67.6883C324.731 49.766 290.852 38.0877 255.701 34.272C248.763 33.4626 210.375 33.0001 156.146 33.0001H67.8066L62.719 35.6595Z" fill="url(#paint0_linear_29_26)"/>
<path d="M313.313 151.374C284.521 170.568 266.455 183.316 208.178 223.785C199.506 229.798 181.468 242.401 168.171 251.767C154.874 261.248 143.543 268.88 143.196 268.88C142.733 268.88 154.99 255.814 170.484 239.857C185.978 223.901 193.32 216.645 194.939 214.68L195.052 214.547C196.359 213.023 194.394 210.896 192.771 212.078V212.078C190.805 213.35 187.712 214.419 175.571 222.051C163.546 229.798 130.361 251.536 101.917 270.383L52.8082 302.83C51.1271 303.941 50.1157 305.821 50.1157 307.836V355.022V391.942C50.1157 397.14 56.2754 399.879 60.1349 396.397L60.7534 395.839C66.6504 390.52 75.3225 382.542 80.1788 378.032C84.9196 373.523 94.8635 364.504 102.148 357.913C174.646 292.815 305.202 169.61 321.117 156.143C332.391 146.604 340.629 133.162 313.313 151.374Z" fill="url(#paint1_linear_29_26)"/>
<path d="M410.295 139.03C406.479 142.615 395.032 152.79 384.857 161.693C374.682 170.597 365.779 178.459 364.969 179.153C363.928 180.078 364.507 183.316 367.513 193.144C382.313 241.939 377.804 292.121 354.794 335.713C335.831 371.557 309.815 398.267 275.589 417.23C246.22 433.533 206.444 439.083 187.597 429.602C165.743 418.502 168.056 385.895 193.609 348.663C206.675 329.469 238.617 290.069 327.188 185.195C332.391 179.558 334.79 170.597 324.153 179.153C319.759 182.738 317.909 184.356 306.809 193.26C249.689 238.932 224.251 260.324 173.837 305.418C110.126 362.307 80.2945 391.214 72.085 403.817C57.0534 426.711 60.9847 452.728 81.1039 463.018C90.2385 467.643 95.9042 467.99 174.415 467.412C256.048 466.95 257.436 466.834 285.996 459.781C312.243 453.306 341.266 439.777 364.854 423.127C370.057 419.427 381.504 409.252 390.06 400.695C414.342 376.529 429.605 352.132 439.78 321.028C446.949 299.174 449.146 285.53 449.84 258.936C450.765 226.445 447.758 204.013 439.086 177.65C435.039 165.393 421.395 136.024 418.62 133.827C417.58 133.018 415.383 134.405 410.295 139.03Z" fill="url(#paint2_linear_29_26)"/>
<path d="M429.208 56.7656C434.629 59.9441 438.295 64.3672 439.527 70.4555C440.988 77.6737 439.232 84.1226 434.144 89.5426C430.582 93.3359 426.502 96.5825 422.526 99.9175C417.114 104.458 411.878 109.193 406.522 113.794C399.392 119.92 392.257 126.039 385.131 132.17C382.416 134.506 379.733 136.879 377.014 139.21C375.475 140.53 373.246 140.441 372.33 139.036C371.516 137.785 371.826 136.644 372.875 135.698C376.462 132.464 380.075 129.26 383.667 126.032C387.332 122.737 391.188 119.663 394.781 116.278C398.211 113.045 401.885 110.069 405.435 106.962C410.354 102.656 415.262 98.3375 420.163 94.0108C421.149 93.1395 421.255 91.8577 420.486 90.9653C419.701 90.0533 418.42 89.8886 417.413 90.7209C412.687 94.6275 407.977 98.5523 403.295 102.511C401.073 104.389 398.936 106.366 396.741 108.277C396.355 108.613 395.897 108.894 395.431 109.11C394.138 109.71 392.684 109.356 391.923 108.307C391.225 107.346 391.407 105.956 392.514 104.951C394.818 102.857 397.169 100.815 399.518 98.7699C403.47 95.327 407.446 91.91 411.388 88.4541C412.228 87.717 412.749 86.7672 411.853 85.7506C411.054 84.8438 410.085 84.5895 408.951 85.3445C405.863 87.4024 403.28 90.0547 400.459 92.426C395.369 96.705 390.341 101.056 385.281 105.37C378.763 110.928 372.254 116.497 365.715 122.029C360.88 126.12 356.005 130.165 351.141 134.221C349.997 135.175 348.178 135.178 347.288 134.266C346.355 133.31 346.446 131.651 347.659 130.554C350.388 128.085 353.175 125.679 355.957 123.269C361.292 118.648 366.633 114.033 371.985 109.431C377.614 104.591 383.295 99.8092 388.886 94.9256C393.693 90.727 398.389 86.4029 403.168 82.1713C405.069 80.4875 407.05 78.892 409.013 77.2779C410.369 76.1624 410.61 75.3199 409.803 74.281C408.856 73.0618 407.824 72.9074 406.457 74.0579C403.837 76.2625 401.297 78.5617 398.745 80.8456C395.574 83.6838 392.204 86.2991 389.232 89.3621C388.331 90.2906 386.461 90.1613 385.708 89.2746C384.914 88.3408 385.043 87.1444 386.208 86.1348C389.187 83.5518 392.216 81.0257 395.219 78.4701C395.653 78.1015 396.086 77.7238 396.463 77.3012C397.214 76.4615 397.437 75.5557 396.487 74.7164C395.599 73.9323 394.699 74.0442 393.841 74.8302C391.963 76.5494 390.1 78.284 388.189 79.9664C384.958 82.8127 381.702 85.6317 378.442 88.4468C374.512 91.8414 370.583 95.2372 366.626 98.6009C362.469 102.135 358.276 105.628 354.108 109.148C353.473 109.683 352.901 110.291 352.269 110.828C350.96 111.94 349.285 111.829 348.243 110.588C347.243 109.398 347.451 107.877 348.786 106.775C358.518 98.7513 367.86 90.2782 377.473 82.117C384.313 76.3097 391.248 70.6137 398.087 64.8053C400.816 62.4877 403.351 59.9345 406.419 58.0415C413.733 53.5288 421.294 52.9498 429.208 56.7656Z" fill="url(#paint3_linear_29_26)"/>
<path d="M363.98 136.125C364.319 137.371 363.861 138.283 363.057 138.98C358.082 143.294 353.082 147.58 348.085 151.869C347.339 152.509 346.522 153.077 345.473 152.806C344.613 152.584 343.826 152.178 343.619 151.186C343.413 150.201 343.727 149.365 344.475 148.712C347.779 145.823 351.078 142.926 354.41 140.069C356.194 138.541 357.895 136.93 359.587 135.304C361.176 133.776 362.864 134.082 363.98 136.125Z" fill="url(#paint4_linear_29_26)"/>
<defs>
<linearGradient id="paint0_linear_29_26" x1="351.446" y1="41.4978" x2="306.554" y2="200.654" gradientUnits="userSpaceOnUse">
<stop offset="0.32" stop-color="#29292D"/>
<stop offset="1"/>
</linearGradient>
<linearGradient id="paint1_linear_29_26" x1="321.083" y1="163.836" x2="109.594" y2="430.433" gradientUnits="userSpaceOnUse">
<stop offset="0.32" stop-color="#29292D"/>
<stop offset="1"/>
</linearGradient>
<linearGradient id="paint2_linear_29_26" x1="435.425" y1="160.885" x2="172.499" y2="519.714" gradientUnits="userSpaceOnUse">
<stop offset="0.32" stop-color="#29292D"/>
<stop offset="1"/>
</linearGradient>
<linearGradient id="paint3_linear_29_26" x1="348.785" y1="62.613" x2="418.262" y2="149.866" gradientUnits="userSpaceOnUse">
<stop offset="0.32" stop-color="#29292D"/>
<stop offset="1"/>
</linearGradient>
<linearGradient id="paint4_linear_29_26" x1="344.045" y1="136.188" x2="358.833" y2="155.265" gradientUnits="userSpaceOnUse">
<stop offset="0.32" stop-color="#29292D"/>
<stop offset="1"/>
</linearGradient>
</defs>
</svg>
